{
  "accessors": [
    {
      "bufferView": 2,
      "componentType": 5126,
      "count": 6297,
      "max": [
        26.416460037231445,
        -0.2348296344280243,
        28.756315231323242
      ],
      "min": [
        -26.416433334350586,
        -23.06110382080078,
        -17.26498031616211
      ],
      "type": "VEC3"
    },
    {
      "bufferView": 2,
      "byteOffset": 75564,
      "componentType": 5126,
      "count": 6297,
      "max": [
        0.999998152256012,
        0.9999977350234985,
        1.0
      ],
      "min": [
        -0.999998152256012,
        -0.9999977350234985,
        -1.0
      ],
      "type": "VEC3"
    },
    {
      "bufferView": 1,
      "componentType": 5126,
      "count": 6297,
      "max": [
        0.0,
        0.0
      ],
      "min": [
        0.0,
        0.0
      ],
      "type": "VEC2"
    },
    {
      "bufferView": 0,
      "componentType": 5125,
      "count": 36360,
      "type": "SCALAR"
    },
    {
      "bufferView": 2,
      "byteOffset": 151128,
      "componentType": 5126,
      "count": 2374,
      "max": [
        8.076189041137695,
        0.0,
        9.226238250732422
      ],
      "min": [
        -8.037765502929688,
        -23.43675422668457,
        -4.905848026275635
      ],
      "type": "VEC3"
    },
    {
      "bufferView": 2,
      "byteOffset": 179616,
      "componentType": 5126,
      "count": 2374,
      "max": [
        0.9999982118606567,
        1.0,
        1.0
      ],
      "min": [
        -0.9999982118606567,
        -1.0,
        -1.0
      ],
      "type": "VEC3"
    },
    {
      "bufferView": 1,
      "byteOffset": 50376,
      "componentType": 5126,
      "count": 2374,
      "max": [
        0.0,
        0.0
      ],
      "min": [
        0.0,
        0.0
      ],
      "type": "VEC2"
    },
    {
      "bufferView": 0,
      "byteOffset": 145440,
      "componentType": 5125,
      "count": 12672,
      "type": "SCALAR"
    }
  ],
  "asset": {
    "extras": {
      "author": "Jugan (https://sketchfab.com/Jugan)",
      "license": "CC-BY-4.0 (http://creativecommons.org/licenses/by/4.0/)",
      "source": "https://sketchfab.com/3d-models/fan-185e5d7fc9f24b9c909d5b788c2a00d9",
      "title": "Fan"
    },
    "generator": "Sketchfab-14.25.0",
    "version": "2.0"
  },
  "bufferViews": [
    {
      "buffer": 0,
      "byteLength": 196128,
      "name": "floatBufferViews",
      "target": 34963
    },
    {
      "buffer": 0,
      "byteLength": 69368,
      "byteOffset": 196128,
      "byteStride": 8,
      "name": "floatBufferViews",
      "target": 34962
    },
    {
      "buffer": 0,
      "byteLength": 208104,
      "byteOffset": 265496,
      "byteStride": 12,
      "name": "floatBufferViews",
      "target": 34962
    }
  ],
  "buffers": [
    {
      "byteLength": 473600,
      "uri": "scene.bin"
    }
  ],
  "materials": [
    {
      "doubleSided": true,
      "name": "Material",
      "pbrMetallicRoughness": {
        "baseColorFactor": [
          0.380057,
          0.360108,
          0.329599,
          1.0
        ],
        "metallicFactor": 0.569697,
        "roughnessFactor": 0.415152
      }
    },
    {
      "doubleSided": true,
      "name": "Material.001",
      "pbrMetallicRoughness": {
        "baseColorFactor": [
          0.8,
          0.526225,
          0.258026,
          1.0
        ],
        "roughnessFactor": 0.160606
      }
    }
  ],
  "meshes": [
    {
      "name": "Object_0",
      "primitives": [
        {
          "attributes": {
            "NORMAL": 1,
            "POSITION": 0,
            "TEXCOORD_0": 2
          },
          "indices": 3,
          "material": 0,
          "mode": 4
        }
      ]
    },
    {
      "name": "Object_1",
      "primitives": [
        {
          "attributes": {
            "NORMAL": 5,
            "POSITION": 4,
            "TEXCOORD_0": 6
          },
          "indices": 7,
          "material": 1,
          "mode": 4
        }
      ]
    }
  ],
  "nodes": [
    {
      "children": [
        1
      ],
      "matrix": [
        1.0,
        0.0,
        0.0,
        0.0,
        0.0,
        2.220446049250313e-16,
        -1.0,
        0.0,
        0.0,
        1.0,
        2.220446049250313e-16,
        0.0,
        0.0,
        0.0,
        0.0,
        1.0
      ],
      "name": "Sketchfab_model"
    },
    {
      "children": [
        2
      ],
      "name": "root"
    },
    {
      "children": [
        3
      ],
      "matrix": [
        1.0,
        0.0,
        0.0,
        0.0,
        0.0,
        2.220446049250313e-16,
        1.0,
        0.0,
        0.0,
        -1.0,
        2.220446049250313e-16,
        0.0,
        0.0,
        0.0,
        0.0,
        1.0
      ],
      "name": "GLTF_SceneRootNode"
    },
    {
      "children": [
        4,
        5
      ],
      "name": "Circle_0"
    },
    {
      "mesh": 0,
      "name": "Object_4"
    },
    {
      "mesh": 1,
      "name": "Object_5"
    }
  ],
  "scene": 0,
  "scenes": [
    {
      "name": "Sketchfab_Scene",
      "nodes": [
        0
      ]
    }
  ]
}
